<svg xmlns="http://www.w3.org/2000/svg"
	 viewBox="0 0 300 600" height="600" width="300">
<path fill="#FFFFFF" opacity="1.000000" stroke="none" 
	d=" M 0 600
		L 3 355
		C 4 344 4 334 5 324
		C 7 310 9 297 11 284
		C 15 256 23 229 32 202
		C 43 169 57 138 74 108
		C 87 85 100 62 117 42
		L 150 0
        L 183 42
        C 200 62 213 85 226 108
        C 243 138 257 169 268 202
        C 277 229 285 256 289 284
        C 291 297 293 310 295 324
        C 296 334 296 344 297 355
        L 300 600
		L 300 600
		L 190 502
		L 110 502
		z"/>
</svg>